<svg width="24" height="24" viewBox="0 0 24 24" fill="none" xmlns="http://www.w3.org/2000/svg">
<path fill-rule="evenodd" clip-rule="evenodd" d="M11.1299 4V12.4301L9.84977 11.15C9.55977 10.86 9.07977 10.86 8.78977 11.15C8.49977 11.44 8.49977 11.92 8.78977 12.21L11.3498 14.77C11.4998 14.92 11.6898 14.99 11.8798 14.99C12.0698 14.99 12.2598 14.92 12.4098 14.77L14.9698 12.21C15.2598 11.92 15.2598 11.44 14.9698 11.15C14.6798 10.86 14.1998 10.86 13.9098 11.15L12.6299 12.4299V4C12.6299 3.59 12.2899 3.25 11.8799 3.25C11.4699 3.25 11.1299 3.59 11.1299 4ZM3.25 12.1801C3.25 17.3301 6.85 20.9301 12 20.9301C17.15 20.9301 20.75 17.3301 20.75 12.1801C20.75 11.7701 20.41 11.4301 20 11.4301C19.59 11.4301 19.25 11.7701 19.25 12.1801C19.25 16.4501 16.27 19.4301 12 19.4301C7.73 19.4301 4.75 16.4501 4.75 12.1801C4.75 11.7701 4.41 11.4301 4 11.4301C3.59 11.4301 3.25 11.7701 3.25 12.1801Z" fill="#1F1F1F"/>
</svg>
