<svg width="24" height="24" viewBox="0 0 24 24" fill="none" xmlns="http://www.w3.org/2000/svg">
<path fill-rule="evenodd" clip-rule="evenodd" d="M2.25 11C2.25 5.61522 6.61522 1.25 12 1.25C17.3848 1.25 21.75 5.61522 21.75 11V12V16C21.75 16.9665 20.9665 17.75 20 17.75H19.75V19.5C19.75 20.4665 18.9665 21.25 18 21.25H14.7323C14.611 22.0981 13.8816 22.75 13 22.75H11C10.0335 22.75 9.25 21.9665 9.25 21V20C9.25 19.0335 10.0335 18.25 11 18.25H13C13.8816 18.25 14.611 18.9019 14.7323 19.75H18C18.1381 19.75 18.25 19.6381 18.25 19.5V17.75H18C17.0335 17.75 16.25 16.9665 16.25 16V12C16.25 11.0335 17.0335 10.25 18 10.25H20C20.0737 10.25 20.1463 10.2546 20.2176 10.2634C19.8449 6.05212 16.3081 2.75 12 2.75C7.6919 2.75 4.15505 6.05212 3.78244 10.2634C3.85372 10.2546 3.92633 10.25 4 10.25H6C6.9665 10.25 7.75 11.0335 7.75 12V16C7.75 16.9665 6.9665 17.75 6 17.75H4C3.0335 17.75 2.25 16.9665 2.25 16V12V11ZM19 16.25H20C20.1381 16.25 20.25 16.1381 20.25 16V12C20.25 11.8619 20.1381 11.75 20 11.75H18C17.8619 11.75 17.75 11.8619 17.75 12V16C17.75 16.1381 17.8619 16.25 18 16.25H19ZM13.25 20.5V20C13.25 19.8619 13.1381 19.75 13 19.75H11C10.8619 19.75 10.75 19.8619 10.75 20V21C10.75 21.1381 10.8619 21.25 11 21.25H13C13.1381 21.25 13.25 21.1381 13.25 21V20.5ZM3.75 16V12C3.75 11.8619 3.86193 11.75 4 11.75H6C6.13807 11.75 6.25 11.8619 6.25 12V16C6.25 16.1381 6.13807 16.25 6 16.25H4C3.86193 16.25 3.75 16.1381 3.75 16Z" fill="#1F1F1F"/>
</svg>
