<svg width="25" height="24" viewBox="0 0 25 24" fill="none" xmlns="http://www.w3.org/2000/svg">
<path fill-rule="evenodd" clip-rule="evenodd" d="M5.14902 2.75C4.70971 2.75 4.36644 3.12931 4.41015 3.56644L5.17851 11.25H6.67103L5.8879 3.41867C5.84994 3.03907 5.53051 2.75 5.14902 2.75ZM8.17851 11.25L7.38045 3.26941C7.26581 2.12302 6.30114 1.25 5.14902 1.25C3.82228 1.25 2.78558 2.39554 2.9176 3.7157L3.67103 11.25H3.5C1.98122 11.25 0.75 12.4812 0.75 14V18C0.75 19.5188 1.98122 20.75 3.5 20.75H3.75V22C3.75 22.4142 4.08579 22.75 4.5 22.75C4.91421 22.75 5.25 22.4142 5.25 22V20.75H19.75V22C19.75 22.4142 20.0858 22.75 20.5 22.75C20.9142 22.75 21.25 22.4142 21.25 22V20.75H21.5C23.0188 20.75 24.25 19.5188 24.25 18V14C24.25 12.4812 23.0188 11.25 21.5 11.25H21.3287L22.0822 3.7157C22.2142 2.39554 21.1775 1.25 19.8507 1.25C18.6986 1.25 17.734 2.12301 17.6193 3.26941L16.8213 11.25H8.17851ZM7.49977 12.75H4.49977H3.5C2.80964 12.75 2.25 13.3096 2.25 14V18C2.25 18.6904 2.80964 19.25 3.5 19.25H4.5H20.5H21.5C22.1904 19.25 22.75 18.6904 22.75 18V14C22.75 13.3096 22.1904 12.75 21.5 12.75H20.5H17.5H7.49977ZM18.3287 11.25H19.8213L20.5896 3.56644C20.6333 3.12931 20.2901 2.75 19.8507 2.75C19.4693 2.75 19.1498 3.03907 19.1119 3.41867L18.3287 11.25ZM5.5 15.25C5.08579 15.25 4.75 15.5858 4.75 16C4.75 16.4142 5.08579 16.75 5.5 16.75H13.5C13.9142 16.75 14.25 16.4142 14.25 16C14.25 15.5858 13.9142 15.25 13.5 15.25H5.5ZM18.75 16C18.75 15.5858 19.0858 15.25 19.5 15.25H20.5C20.9142 15.25 21.25 15.5858 21.25 16C21.25 16.4142 20.9142 16.75 20.5 16.75H19.5C19.0858 16.75 18.75 16.4142 18.75 16Z" fill="#1F1F1F"/>
</svg>
