<svg width="24" height="24" viewBox="0 0 24 24" fill="none" xmlns="http://www.w3.org/2000/svg">
<path fill-rule="evenodd" clip-rule="evenodd" d="M10.6364 2.98176C11.4419 2.36806 12.5581 2.36806 13.3636 2.98176L20.25 8.22852V19C20.25 20.2426 19.2426 21.25 18 21.25H6C4.75736 21.25 3.75 20.2426 3.75 19V8.22858L10.6364 2.98176ZM2.25 9.37143L1.95457 9.59652C1.62509 9.84755 1.1545 9.78396 0.903466 9.45448C0.652435 9.125 0.716029 8.65441 1.04551 8.40337L9.72738 1.78862C11.0699 0.765774 12.9302 0.765774 14.2727 1.78862L22.9546 8.40337C23.2841 8.65441 23.3476 9.125 23.0966 9.45448C22.8456 9.78396 22.375 9.84755 22.0455 9.59652L21.75 9.37137V19C21.75 21.0711 20.0711 22.75 18 22.75H6C3.92893 22.75 2.25 21.0711 2.25 19V9.37143ZM7.26813 10.6198C8.73673 10.0581 10.3316 9.75 12.0002 9.75C13.6688 9.75 15.2637 10.0581 16.7323 10.6198C17.1192 10.7677 17.5528 10.5741 17.7007 10.1872C17.8487 9.8003 17.655 9.36672 17.2681 9.21875C15.6311 8.59264 13.8548 8.25 12.0002 8.25C10.1456 8.25 8.36928 8.59264 6.73228 9.21875C6.3454 9.36672 6.15172 9.8003 6.29969 10.1872C6.44766 10.5741 6.88125 10.7677 7.26813 10.6198ZM8.73869 13.2796C9.76225 12.9363 10.8587 12.75 12.0002 12.75C13.1417 12.75 14.2382 12.9363 15.2617 13.2796C15.6544 13.4113 16.0796 13.1997 16.2113 12.807C16.343 12.4143 16.1314 11.9892 15.7387 11.8574C14.5634 11.4633 13.3059 11.25 12.0002 11.25C10.6945 11.25 9.43704 11.4633 8.26172 11.8574C7.86901 11.9892 7.65742 12.4143 7.78913 12.807C7.92084 13.1997 8.34597 13.4113 8.73869 13.2796ZM12.0002 15.75C11.3732 15.75 10.7658 15.8294 10.1871 15.9784C9.78598 16.0816 9.3771 15.8401 9.27385 15.439C9.17061 15.0378 9.4121 14.629 9.81324 14.5257C10.513 14.3456 11.246 14.25 12.0002 14.25C12.7544 14.25 13.4873 14.3456 14.1871 14.5257C14.5883 14.629 14.8298 15.0378 14.7265 15.439C14.6233 15.8401 14.2144 16.0816 13.8132 15.9784C13.2346 15.8294 12.6272 15.75 12.0002 15.75ZM11.2119 18.7201C11.7295 18.5907 12.2709 18.5907 12.7884 18.7201L12.8183 18.7275C13.2201 18.828 13.6273 18.5837 13.7278 18.1818C13.8282 17.78 13.5839 17.3728 13.1821 17.2723L13.1522 17.2649C12.3958 17.0758 11.6045 17.0758 10.8481 17.2649L10.8183 17.2723C10.4164 17.3728 10.1721 17.78 10.2726 18.1818C10.373 18.5837 10.7802 18.828 11.1821 18.7275L11.2119 18.7201Z" fill="#1F1F1F"/>
</svg>
