<svg width="24" height="24" viewBox="0 0 24 24" fill="none" xmlns="http://www.w3.org/2000/svg">
<path fill-rule="evenodd" clip-rule="evenodd" d="M18.4145 2.64601C16.3527 1.83806 13.916 2.26592 12.2479 3.93401C10.7696 5.4123 10.2654 7.49501 10.7319 9.38363C10.7778 9.56931 10.7237 9.70081 10.6651 9.75938L3.05546 17.3691C1.98151 18.443 1.98152 20.1842 3.05546 21.2581C4.1294 22.3321 5.8706 22.3321 6.94454 21.2581L14.5542 13.6485C14.6128 13.5899 14.7443 13.5358 14.93 13.5817C16.8186 14.0482 18.9013 13.544 20.3796 12.0657C22.0477 10.3976 22.4755 7.9609 21.6676 5.8991C21.5753 5.6635 21.3704 5.49034 21.1227 5.43859C20.875 5.38684 20.6179 5.46348 20.439 5.64241L17.9047 8.17665C17.8071 8.27428 17.6488 8.27428 17.5512 8.17665L16.137 6.76244C16.0393 6.66481 16.0393 6.50651 16.137 6.40888L18.6712 3.87464C18.8501 3.69572 18.9268 3.43863 18.875 3.19093C18.8233 2.94324 18.6501 2.73834 18.4145 2.64601ZM13.3085 4.99467C14.2262 4.07699 15.4598 3.6661 16.6607 3.76383L15.0763 5.34822C14.3929 6.03164 14.3929 7.13968 15.0763 7.8231L16.4905 9.23731C17.1739 9.92073 18.282 9.92073 18.9654 9.23731L20.5498 7.65292C20.6475 8.85378 20.2366 10.0874 19.3189 11.0051C18.2274 12.0966 16.6895 12.4712 15.2897 12.1254C14.7036 11.9806 13.9971 12.0843 13.4936 12.5878L5.88388 20.1975C5.39573 20.6856 4.60427 20.6856 4.11612 20.1975C3.62796 19.7093 3.62796 18.9179 4.11612 18.4297L11.7258 10.82C12.2293 10.3165 12.333 9.60998 12.1882 9.0239C11.8424 7.6241 12.217 6.08623 13.3085 4.99467Z" fill="#1F1F1F"/>
</svg>
