<svg width="24" height="24" viewBox="0 0 24 24" fill="none" xmlns="http://www.w3.org/2000/svg">
<path fill-rule="evenodd" clip-rule="evenodd" d="M23.75 2.93792C23.75 1.96956 22.8231 1.27043 21.892 1.53646L19.6401 2.17988C17.1555 2.88977 14.584 3.24991 12 3.24991C9.41597 3.24991 6.84455 2.88977 4.35995 2.17988L2.10796 1.53646C1.17686 1.27043 0.25 1.96956 0.25 2.93792V18.0619C0.25 19.0303 1.17686 19.7294 2.10796 19.4634L4.35994 18.8199C6.60403 18.1788 8.91894 17.8229 11.25 17.76V20.7431C9.19632 20.7747 7.14415 20.9361 5.10581 21.2273L4.89403 21.2575C4.48398 21.3161 4.19905 21.696 4.25763 22.106C4.31621 22.5161 4.69611 22.801 5.10616 22.7424L5.31794 22.7122C9.75021 22.079 14.25 22.079 18.6823 22.7122L18.894 22.7424C19.3041 22.801 19.684 22.5161 19.7426 22.106C19.8011 21.696 19.5162 21.3161 19.1062 21.2575L18.8944 21.2273C16.856 20.9361 14.8037 20.7747 12.75 20.7431V17.76C15.0811 17.8229 17.396 18.1788 19.6401 18.8199L21.892 19.4634C22.8231 19.7294 23.75 19.0303 23.75 18.0619V2.93792ZM20.0521 3.62217L22.25 2.99421V18.0056L20.0521 17.3777C17.4335 16.6295 14.7234 16.2499 12 16.2499C9.2766 16.2499 6.56648 16.6295 3.94786 17.3777L1.75 18.0056V2.99421L3.94786 3.62217C6.56648 4.37035 9.2766 4.74991 12 4.74991C14.7234 4.74991 17.4335 4.37034 20.0521 3.62217ZM10.5 9.72868C10.5 9.11891 10.7098 8.88507 10.8367 8.81167C10.9631 8.73858 11.2687 8.67349 11.7942 8.97775L13.8747 10.178C14.3997 10.4821 14.4975 10.7805 14.4975 10.9287C14.4975 11.0769 14.3993 11.3755 13.8742 11.6796L11.7942 12.8796C11.2687 13.1839 10.9631 13.1188 10.8367 13.0457C10.7098 12.9723 10.5 12.7384 10.5 12.1287V9.72868ZM10.0858 7.51319C10.8367 7.07887 11.7409 7.21381 12.5453 7.67931L13.5848 8.27904L14.6258 8.87961C15.4303 9.3454 15.9975 10.0619 15.9975 10.9287C15.9975 11.7954 15.4303 12.512 14.6258 12.9777L12.5453 14.178C11.741 14.6435 10.8367 14.7785 10.0858 14.3442C9.33519 13.9101 9 13.0589 9 12.1287V9.72868C9 8.79845 9.33519 7.94729 10.0858 7.51319Z" fill="#1F1F1F"/>
</svg>
