<svg width="25" height="24" viewBox="0 0 25 24" fill="none" xmlns="http://www.w3.org/2000/svg">
<path fill-rule="evenodd" clip-rule="evenodd" d="M14.9398 7.24988C14.7498 7.24988 14.5598 7.17988 14.4098 7.02988L13.1299 5.75V14.1799C13.1299 14.5999 12.7899 14.9299 12.3799 14.9299C11.9699 14.9299 11.6299 14.5899 11.6299 14.1799V5.74977L10.3498 7.02988C10.0598 7.31988 9.57977 7.31988 9.28977 7.02988C8.99977 6.73988 8.99977 6.25988 9.28977 5.96988L11.8498 3.40988C12.1398 3.11988 12.6198 3.11988 12.9098 3.40988L15.4698 5.96988C15.7598 6.25988 15.7598 6.73988 15.4698 7.02988C15.3198 7.17988 15.1298 7.24988 14.9398 7.24988ZM3.75 11.9999C3.75 17.1499 7.35 20.7499 12.5 20.7499C17.65 20.7499 21.25 17.1499 21.25 11.9999C21.25 11.5899 20.91 11.2499 20.5 11.2499C20.09 11.2499 19.75 11.5899 19.75 11.9999C19.75 16.2699 16.77 19.2499 12.5 19.2499C8.23 19.2499 5.25 16.2699 5.25 11.9999C5.25 11.5899 4.91 11.2499 4.5 11.2499C4.09 11.2499 3.75 11.5899 3.75 11.9999Z" fill="#1F1F1F"/>
</svg>
