<svg width="25" height="24" viewBox="0 0 25 24" fill="none" xmlns="http://www.w3.org/2000/svg">
<path fill-rule="evenodd" clip-rule="evenodd" d="M22.0405 8.94993C22.1805 9.05993 22.3405 9.1099 22.5005 9.1099C22.7205 9.1099 22.9505 9.00992 23.0905 8.81992C23.3505 8.48992 23.2905 8.0199 22.9605 7.7699C16.6005 2.8599 8.39051 2.8599 2.04051 7.7699C1.72051 8.0199 1.66052 8.48992 1.91052 8.81992C2.16052 9.13992 2.63053 9.19993 2.96053 8.94993C8.75052 4.46993 16.2405 4.46993 22.0405 8.94993ZM19.1299 12.4299C19.2699 12.5399 19.4299 12.5899 19.5899 12.5899C19.8199 12.5899 20.0399 12.4899 20.1699 12.2999C20.4299 11.9699 20.3699 11.4999 20.0399 11.2499C15.4599 7.6999 9.52994 7.6999 4.93994 11.2499C4.61994 11.4999 4.55993 11.9699 4.80993 12.2999C5.05993 12.6199 5.52993 12.6799 5.85993 12.4299C9.88993 9.31989 15.0999 9.31989 19.1299 12.4299ZM17.7096 16.2403C17.5496 16.2403 17.3896 16.1903 17.2496 16.0803C14.3696 13.8503 10.6396 13.8503 7.74958 16.0803C7.41958 16.3303 6.94958 16.2703 6.69958 15.9503C6.44958 15.6203 6.50958 15.1503 6.82958 14.9003C10.2696 12.2403 14.7196 12.2403 18.1596 14.9003C18.4896 15.1503 18.5496 15.6203 18.2896 15.9503C18.1496 16.1403 17.9296 16.2403 17.7096 16.2403ZM14.6402 19.74C14.7802 19.85 14.9402 19.9 15.1002 19.9C15.3302 19.9 15.5502 19.79 15.6802 19.61C15.9402 19.28 15.8802 18.81 15.5502 18.56C13.6902 17.12 11.2902 17.12 9.43016 18.56C9.11016 18.81 9.05017 19.28 9.30017 19.61C9.55017 19.93 10.0202 19.99 10.3502 19.74C11.6502 18.73 13.3402 18.73 14.6402 19.74Z" fill="#1F1F1F"/>
</svg>
